<svg version="1.1" id="Layer_1" xmlns="http://www.w3.org/2000/svg" xmlns:xlink="http://www.w3.org/1999/xlink" x="0px" y="0px"
	 width="100%" viewBox="0 0 512 512" enable-background="new 0 0 512 512" xml:space="preserve">
<path fill="#000000" opacity="1.000000" stroke="none" 
	d="
M171.873535,432.000000 
	C171.886902,414.501953 171.783218,397.502441 171.994354,380.506836 
	C172.052475,375.829407 170.658768,373.598206 165.747452,374.239410 
	C164.109100,374.453339 162.418915,374.273315 160.752441,374.268005 
	C143.457001,374.212799 133.974960,364.706787 133.955658,347.237549 
	C133.912567,308.242035 133.931335,269.246460 133.921051,230.250931 
	C133.918228,219.585602 133.789017,208.918640 133.945404,198.255753 
	C134.010468,193.818268 132.016953,192.636734 127.883804,192.533813 
	C122.142639,192.390869 118.434898,193.979691 115.996338,199.796478 
	C113.430153,205.917740 108.142197,210.190292 101.910255,212.633743 
	C98.305603,214.047089 97.277908,216.187012 97.301132,219.820526 
	C97.421532,238.650894 97.417961,257.482971 97.286636,276.313263 
	C97.260422,280.072357 98.302818,281.972290 102.367264,281.642548 
	C106.312141,281.322510 108.894333,283.438690 110.787689,286.768860 
	C114.821770,293.864258 118.980171,300.888916 123.076759,307.948853 
	C125.077148,311.396240 125.217575,314.792480 123.118141,318.335785 
	C118.872833,325.500763 114.849403,332.797729 110.570465,339.942047 
	C107.702492,344.730499 103.229797,346.135559 99.182747,343.849335 
	C95.000420,341.486694 93.888023,336.653412 96.604256,331.725922 
	C99.257149,326.913361 101.946121,322.104767 104.933479,317.498169 
	C106.946732,314.393707 106.622925,311.785675 104.902405,308.723419 
	C98.690186,297.666656 95.188820,295.945618 82.564705,298.013458 
	C80.713615,298.316620 79.638321,299.313324 78.633102,300.731415 
	C70.787384,311.799286 70.770294,312.713440 77.953194,324.434296 
	C79.692390,327.272308 81.421600,330.143127 82.828255,333.151794 
	C84.815849,337.402985 83.315224,341.727478 79.419083,343.874146 
	C75.667465,345.941223 71.422821,345.093109 68.986031,341.090546 
	C64.050049,332.983002 59.458279,324.665222 54.760517,316.413666 
	C53.381390,313.991241 53.831535,311.574921 55.143299,309.278046 
	C59.603813,301.467773 64.047234,293.647125 68.590286,285.884949 
	C70.203705,283.128296 72.635223,281.483795 75.996727,281.638580 
	C79.625793,281.805695 81.026108,280.015320 81.016136,276.474609 
	C80.961716,257.144104 80.947662,237.812988 81.064041,218.482956 
	C81.084045,215.160400 79.311447,213.951721 76.663803,212.726639 
	C64.589577,207.139694 57.313206,194.720764 58.464943,182.067902 
	C59.697723,168.524734 68.841270,157.778610 82.106621,154.282608 
	C95.785637,150.677612 110.602234,157.733490 117.160881,170.975983 
	C119.780060,176.264343 127.563705,178.622589 132.764114,175.772827 
	C134.306244,174.927780 134.474731,173.471893 134.927322,172.047729 
	C138.698837,160.179657 146.947357,154.034485 159.445526,153.960358 
	C174.443359,153.871414 189.442108,153.951050 204.440277,153.899292 
	C210.586411,153.878098 210.664398,153.717850 210.661560,146.695496 
	C210.658691,139.583603 210.526169,139.389038 204.522263,139.352600 
	C197.023376,139.307068 189.523743,139.370560 182.025055,139.310257 
	C168.153595,139.198746 157.889053,129.357986 157.821518,115.541046 
	C157.799225,110.975471 156.459976,108.972740 152.041016,107.399345 
	C134.527359,101.163559 124.440460,86.246948 124.665466,67.958771 
	C124.872002,51.172176 135.991501,36.376862 152.925644,30.652578 
	C156.133362,29.568274 158.162201,28.201918 159.259689,24.601307 
	C162.308167,14.599964 170.503082,8.691309 180.981476,8.649306 
	C209.144531,8.536415 237.308243,8.607442 265.471680,8.571446 
	C287.281677,8.543570 309.091614,8.476352 330.901520,8.403347 
	C343.124268,8.362434 351.506165,14.214820 355.268402,25.857384 
	C356.109192,28.459249 357.567291,29.507870 359.992615,30.267532 
	C377.312958,35.692600 389.133728,50.659134 389.355377,67.240753 
	C389.612793,86.496361 379.271912,101.540756 361.219727,107.558159 
	C357.337555,108.852226 356.205200,110.742554 356.230530,114.727173 
	C356.322876,129.262955 346.266571,139.223602 331.815735,139.324295 
	C324.150330,139.377716 316.479950,139.494019 308.820312,139.279709 
	C304.762268,139.166168 303.212830,140.503250 303.265594,144.723831 
	C303.380005,153.884979 303.185944,153.889633 312.481598,153.897400 
	C326.146729,153.908829 339.811951,153.893661 353.476990,153.932495 
	C367.283295,153.971741 375.270203,159.835175 379.312073,172.885620 
	C379.612061,173.854156 379.805725,174.791000 380.641724,175.470184 
	C384.413269,178.534210 394.356781,176.294922 396.446503,171.899231 
	C402.759277,158.620346 415.867310,151.555984 429.979797,153.827057 
	C442.316986,155.812424 453.565369,167.020721 455.282074,179.039185 
	C457.403717,193.892181 450.968170,206.206177 437.408997,212.509781 
	C434.226562,213.989258 432.908600,215.739410 432.935455,219.277695 
	C433.076935,237.940765 433.059723,256.605743 432.964569,275.269379 
	C432.944061,279.289307 433.459961,282.160034 438.576630,281.702332 
	C441.654938,281.427002 443.945831,283.264771 445.471069,285.884888 
	C449.827972,293.369476 454.108734,300.898468 458.485748,308.371185 
	C460.441833,311.710815 460.477264,314.882721 458.485901,318.254913 
	C454.251404,325.425537 450.241089,332.728973 445.978546,339.882446 
	C443.048401,344.799774 438.823364,346.207489 434.684998,343.980591 
	C430.337128,341.641022 429.132751,336.991760 431.856445,331.931122 
	C434.697144,326.653137 437.695526,321.452698 440.824585,316.340576 
	C442.236603,314.033722 442.313507,312.036011 440.748169,309.903320 
	C440.552551,309.636810 440.418579,309.324829 440.258301,309.032654 
	C433.937469,297.511078 431.097565,296.115448 418.109924,297.983887 
	C416.509430,298.214172 415.258514,298.792358 414.380737,300.149994 
	C413.928589,300.849426 413.514038,301.582642 412.988983,302.224091 
	C407.090698,309.430450 406.454315,316.528992 412.760132,324.012085 
	C415.083069,326.768738 416.618774,330.232208 418.279602,333.492432 
	C420.390289,337.635803 418.865723,341.034271 415.328247,343.450500 
	C411.608765,345.990997 407.402924,345.536774 405.094238,341.955200 
	C399.600189,333.431915 394.673187,324.531281 389.792542,315.632050 
	C388.443512,313.172272 389.533966,310.423492 390.932953,308.024841 
	C395.129181,300.830078 399.335266,293.640900 403.491302,286.422943 
	C405.315887,283.254089 407.904785,281.485596 411.632111,281.679962 
	C415.167511,281.864319 416.695068,280.458740 416.672546,276.706848 
	C416.556396,257.376556 416.579803,238.044830 416.697388,218.714462 
	C416.715637,215.717117 415.499298,214.184647 412.883057,213.072998 
	C404.836487,209.654037 399.021454,203.893509 395.904510,195.695435 
	C394.799988,192.790344 392.844147,192.761917 390.361542,192.804779 
	C380.045654,192.983002 380.049255,192.934265 380.050201,203.298584 
	C380.054535,251.459641 380.060272,299.620697 380.056641,347.781738 
	C380.055389,364.377533 370.248535,374.214508 353.677673,374.275665 
	C342.244232,374.317871 342.199066,374.317810 342.186890,385.512878 
	C342.156219,413.676086 342.256592,441.839752 342.135712,470.002502 
	C342.057037,488.332306 329.450134,503.127106 312.381226,505.329895 
	C290.954956,508.095093 272.866669,491.904297 272.822418,469.762604 
	C272.763458,440.266388 272.823883,410.769867 272.848846,381.273499 
	C272.854706,374.346283 272.831940,374.292480 265.939575,374.281586 
	C259.606995,374.271576 253.257324,374.546387 246.947327,374.164520 
	C242.137009,373.873444 241.053604,375.847504 241.077774,380.256500 
	C241.241257,410.085632 241.271164,439.916107 241.182922,469.745667 
	C241.128677,488.081757 228.573975,503.029419 211.637939,505.321228 
	C190.336838,508.203735 172.369064,492.548279 171.951340,470.492737 
	C171.711563,457.832581 171.886795,445.164520 171.873535,432.000000 
M363.666748,270.500061 
	C363.661438,240.344727 363.667847,210.189392 363.642181,180.034073 
	C363.636200,172.984268 361.086456,170.370667 354.004883,170.367661 
	C289.527985,170.340195 225.051071,170.340775 160.574173,170.367233 
	C153.022125,170.370331 150.359406,173.097122 150.357437,180.653381 
	C150.342865,236.300156 150.344894,291.946930 150.356827,347.593689 
	C150.358505,355.478760 152.652893,357.826630 160.376404,357.825958 
	C224.686600,357.820129 288.996796,357.804871 353.306976,357.769714 
	C361.614685,357.765167 363.661224,355.684570 363.663818,347.472870 
	C363.671875,322.148590 363.666779,296.824341 363.666748,270.500061 
M254.500000,122.860115 
	C279.819489,122.863693 305.138977,122.881493 330.458466,122.861305 
	C337.150726,122.855972 339.779785,120.652954 339.795898,114.642471 
	C339.868652,87.491028 339.868134,60.339195 339.801147,33.187733 
	C339.786621,27.297091 337.525940,24.996021 331.578583,24.942862 
	C306.765289,24.721085 281.941101,24.147017 257.139435,24.638260 
	C232.826996,25.119810 208.529510,24.310211 184.225586,24.711447 
	C176.560028,24.837997 174.225357,26.721407 174.215363,34.265285 
	C174.180527,60.583988 174.198441,86.902802 174.228348,113.221535 
	C174.237228,121.036415 176.083084,122.836876 184.038055,122.844521 
	C207.192017,122.866768 230.346024,122.856255 254.500000,122.860115 
M272.492004,153.914658 
	C275.980804,153.899475 279.470123,153.842514 282.958282,153.882568 
	C285.661591,153.913589 286.946564,152.671509 286.868073,149.962845 
	C286.824768,148.468994 286.713287,146.954514 286.892517,145.480957 
	C287.486298,140.598541 285.268890,139.192505 280.579620,139.259842 
	C265.132019,139.481674 249.679276,139.335541 234.228516,139.348770 
	C227.193390,139.354782 227.193466,139.373962 227.181473,146.524078 
	C227.180634,147.022491 227.238174,147.529663 227.167007,148.017960 
	C226.487396,152.681519 228.653336,154.056305 233.117722,153.983948 
	C245.906952,153.776672 258.701752,153.913788 272.492004,153.914658 
M437.476501,191.814774 
	C440.522400,184.018265 439.409454,177.621552 434.246765,173.251587 
	C429.788696,169.478043 421.941498,168.869080 416.923798,171.907333 
	C411.709076,175.064865 409.330902,180.658661 410.340485,187.392090 
	C411.116669,192.568848 415.341827,197.446915 420.503784,198.486679 
	C427.157104,199.826828 433.096832,198.663940 437.476501,191.814774 
M97.217293,172.062759 
	C96.162041,171.585510 95.150620,170.920258 94.044243,170.662308 
	C88.028709,169.259811 82.471649,169.791626 78.140068,174.848709 
	C74.380875,179.237549 73.589439,186.349426 76.483963,191.666397 
	C79.519753,197.242874 84.466682,199.292862 90.651855,198.911362 
	C96.410416,198.556152 101.158714,195.117676 103.090431,189.739563 
	C105.403542,183.299652 103.669571,177.579971 97.217293,172.062759 
M289.374939,443.012543 
	C289.361847,446.166718 289.486816,449.329163 289.297943,452.472778 
	C289.097961,455.801697 290.607666,456.821899 293.738770,456.759155 
	C300.542816,456.622833 307.353363,456.820068 314.157684,456.691010 
	C327.591400,456.436249 325.407867,459.091522 325.708282,444.616730 
	C325.774475,441.428986 324.640259,440.128204 321.402283,440.156799 
	C312.106506,440.238922 302.809113,440.123047 293.512360,440.117004 
	C291.863953,440.115936 290.084503,440.009613 289.374939,443.012543 
M188.347412,453.062866 
	C188.105469,456.446503 190.278641,456.763458 192.873550,456.743866 
	C199.538132,456.693542 206.205154,456.823883 212.867889,456.701782 
	C226.371826,456.454285 224.475250,459.119080 224.703018,444.187927 
	C224.750824,441.054047 223.326797,440.124481 220.473953,440.151886 
	C213.809906,440.215851 207.144547,440.143951 200.479721,440.123688 
	C188.333496,440.086731 188.333496,440.085724 188.347412,453.062866 
M317.359802,423.670166 
	C325.667999,423.670013 325.668457,423.670013 325.670441,415.221252 
	C325.670685,414.055939 325.567596,412.881378 325.678589,411.727081 
	C326.014221,408.236511 324.380371,406.971069 321.008179,407.025940 
	C314.351288,407.134247 307.689972,406.951843 301.032501,407.041046 
	C287.286835,407.225159 289.639435,405.183807 289.293396,419.098541 
	C289.206787,422.581451 290.462463,423.816223 293.924561,423.733154 
	C301.411621,423.553467 308.905853,423.672607 317.359802,423.670166 
M201.514908,423.683563 
	C205.330795,423.678284 209.146729,423.683136 212.962555,423.665894 
	C225.742401,423.608215 224.668121,425.439545 224.679367,410.816315 
	C224.681320,408.295532 223.538864,407.127045 221.111847,407.119293 
	C211.324844,407.088013 201.537781,407.068817 191.750748,407.062561 
	C189.590302,407.061188 188.568954,408.062653 188.270462,410.341736 
	C186.652588,422.695251 187.447830,423.696289 199.527222,423.684418 
	C199.859039,423.684082 200.190857,423.684113 201.514908,423.683563 
M295.755798,374.272064 
	C290.723389,373.523682 288.608765,375.646423 289.307770,380.701080 
	C289.488373,382.007080 289.480927,383.377441 289.312317,384.686340 
	C288.742218,389.112396 290.245972,391.023590 295.047028,390.739899 
	C301.512085,390.357880 308.017365,390.704926 314.504120,390.631195 
	C327.148346,390.487488 325.490051,392.644928 325.723236,379.073486 
	C325.788696,375.263672 324.180817,374.182434 320.648712,374.248383 
	C312.666840,374.397461 304.680084,374.283691 295.755798,374.272064 
M224.476608,376.275543 
	C223.468842,373.788483 221.237991,374.325226 219.332993,374.304932 
	C212.680771,374.233917 206.027176,374.218384 199.374649,374.264465 
	C186.818893,374.351440 188.442383,372.663177 188.277634,386.023224 
	C188.235413,389.446350 189.478012,390.759796 192.950958,390.698517 
	C201.763168,390.543060 210.584702,390.489166 219.393173,390.732330 
	C223.665665,390.850250 225.045532,389.099518 224.715546,385.111176 
	C224.496750,382.466675 224.633301,379.792755 224.476608,376.275543 
M157.116013,90.928619 
	C158.169785,76.523239 157.879837,62.113033 157.237106,47.703304 
	C157.227081,47.478825 156.778809,47.273895 156.528458,47.067352 
	C147.148102,48.877934 140.925400,60.222122 140.995712,68.386551 
	C141.091187,79.470993 146.884811,88.422318 157.116013,90.928619 
M360.164734,90.650970 
	C370.529846,84.066391 374.834473,74.546516 372.548431,63.646347 
	C371.009796,56.309940 363.547913,47.055466 356.343567,47.199783 
	C356.343567,61.093670 356.340942,75.003845 356.346100,88.914024 
	C356.346954,91.215027 357.403229,91.922600 360.164734,90.650970 
M199.871292,487.911621 
	C210.473663,490.856842 220.104263,486.795410 223.131714,478.135223 
	C224.149323,475.224243 223.960007,473.230072 220.129898,473.252502 
	C210.984970,473.306061 201.839478,473.298065 192.694397,473.263428 
	C189.229248,473.250305 188.734924,475.116364 189.760452,477.823334 
	C191.490494,482.390015 194.613617,485.699402 199.871292,487.911621 
M291.668518,479.685791 
	C296.601868,487.588135 303.956787,490.701538 312.512970,488.509369 
	C319.347443,486.758270 324.339874,480.745453 324.636963,473.240234 
	C314.877777,473.240234 305.131531,473.213593 295.385468,473.250488 
	C289.847656,473.271454 289.660095,473.587219 291.668518,479.685791 
z"/>
<path fill="#000000" opacity="1.000000" stroke="none" 
	d="
M353.976685,282.995850 
	C353.972076,287.325134 354.035065,291.157013 353.948975,294.985535 
	C353.679962,306.945160 347.490417,313.155823 335.531830,313.179810 
	C304.722809,313.241638 273.913544,313.195770 243.104401,313.185822 
	C221.787949,313.178925 200.471436,313.183960 179.155045,313.137909 
	C166.393692,313.110352 160.017776,306.847351 160.108154,294.071625 
	C160.258881,272.763000 159.336990,251.440521 160.592148,230.149063 
	C161.067825,222.080276 165.946198,217.015976 173.834076,215.566650 
	C176.110641,215.148361 178.462296,214.968857 180.779694,214.967606 
	C231.739639,214.940033 282.699615,214.964294 333.659576,214.946579 
	C341.631073,214.943802 348.617188,216.736862 352.272186,224.758270 
	C353.969360,228.482986 353.904968,232.557510 353.926178,236.533737 
	C354.007751,251.854431 353.969574,267.175781 353.976685,282.995850 
M222.660492,231.656784 
	C209.333298,231.729721 196.004623,231.942078 182.679749,231.798782 
	C178.115952,231.749695 176.130219,232.899750 176.211639,237.946030 
	C176.493866,255.436981 176.458420,272.935974 176.288940,290.429413 
	C176.242447,295.228271 178.038727,296.849335 182.754410,296.836914 
	C232.407578,296.706146 282.061249,296.663422 331.714355,296.778473 
	C336.364349,296.789246 337.748016,295.282806 337.690735,290.741608 
	C337.482788,274.248718 337.614288,257.751556 337.625427,241.255997 
	C337.632111,231.361969 337.638580,231.373825 327.953583,231.394226 
	C293.144104,231.467545 258.334656,231.532135 222.660492,231.656784 
z"/>
<path fill="#000000" opacity="1.000000" stroke="none" 
	d="
M270.006378,92.910782 
	C257.138702,74.026001 265.077362,50.042759 285.981537,43.676006 
	C300.512360,39.250374 316.737946,46.421555 323.377350,60.203781 
	C330.156616,74.276268 325.495575,91.521339 312.634460,99.950523 
	C299.063171,108.845177 282.464081,106.868584 271.858704,95.091187 
	C271.302032,94.473030 270.774841,93.828362 270.006378,92.910782 
M304.313599,85.936317 
	C306.418915,84.232239 308.014252,82.142326 309.042725,79.633499 
	C311.426392,73.818932 310.306396,68.519218 306.317627,63.890865 
	C302.064270,58.955494 296.357574,57.953335 290.400360,59.470833 
	C285.024414,60.840271 281.516754,64.700935 280.385742,70.156845 
	C279.079773,76.456665 280.451263,82.180977 285.967407,86.075867 
	C291.701019,90.124329 297.735901,89.929695 304.313599,85.936317 
z"/>
<path fill="#000000" opacity="1.000000" stroke="none" 
	d="
M219.729614,42.541149 
	C236.452118,43.389778 249.826828,56.198162 250.341690,71.484756 
	C250.927505,88.878586 239.122772,103.444130 222.997528,105.223984 
	C206.322784,107.064484 191.199524,96.408287 188.134857,79.964417 
	C183.819809,56.811707 203.428055,41.255371 219.729614,42.541149 
M233.973022,72.666008 
	C232.950516,64.472443 227.798615,59.353840 220.181107,58.963207 
	C211.766876,58.531719 206.023087,62.596527 204.295853,70.205017 
	C202.261307,79.167213 207.735428,87.648552 216.265793,88.750702 
	C226.459015,90.067696 233.351501,84.158699 233.973022,72.666008 
z"/>
<path fill="#000000" opacity="1.000000" stroke="none" 
	d="
M314.663330,241.881470 
	C327.266968,247.369843 333.037323,257.758392 330.300781,269.468414 
	C327.746643,280.397858 317.537628,288.243866 306.471344,287.575836 
	C296.962891,287.001831 290.128082,282.193573 286.184570,273.605957 
	C281.983704,264.457916 283.691895,255.887253 290.229156,248.562012 
	C296.656097,241.360352 304.857269,239.064545 314.663330,241.881470 
M300.609802,262.983582 
	C300.104614,266.389374 301.606476,268.958954 304.509094,270.321411 
	C306.977325,271.480042 309.754303,271.371307 311.968811,269.335693 
	C314.043549,267.428650 315.255035,265.120514 314.247162,262.221436 
	C313.224579,259.279907 311.113342,257.573517 307.986816,257.326141 
	C304.297546,257.034210 302.073914,258.966187 300.609802,262.983582 
z"/>
<path fill="#000000" opacity="1.000000" stroke="none" 
	d="
M226.757629,252.488083 
	C234.491058,266.828247 226.747131,279.632111 217.669327,284.689362 
	C207.402924,290.408752 194.243576,287.372803 187.451111,277.695648 
	C179.917206,266.962158 182.420334,252.512878 193.116394,244.992706 
	C204.300095,237.129684 218.362518,240.144165 226.757629,252.488083 
M213.007843,261.537415 
	C209.739502,257.221161 206.356094,256.045380 202.963486,258.275879 
	C200.068588,260.179169 198.503662,262.838074 199.917221,266.362091 
	C201.444336,270.169250 204.493362,271.713226 208.356766,270.636108 
	C212.467239,269.490112 214.135025,266.474121 213.007843,261.537415 
z"/>
<path fill="#000000" opacity="1.000000" stroke="none" 
	d="
M257.056641,287.629883 
	C244.055954,286.442474 235.149872,278.455902 233.769302,267.100098 
	C232.431000,256.092072 239.397797,245.111755 249.835983,241.777588 
	C262.763306,237.648315 276.666199,245.628326 279.949829,259.062378 
	C283.051208,271.750977 273.643524,285.395813 260.442413,287.340485 
	C259.455841,287.485809 258.456299,287.542755 257.056641,287.629883 
M251.813141,268.652802 
	C257.016724,272.339447 262.533508,271.031219 263.613129,265.804199 
	C264.284851,262.552185 263.317261,259.857361 260.340759,258.166718 
	C257.785248,256.715210 255.173340,256.874786 252.899490,258.714996 
	C249.700241,261.304138 249.428604,264.527740 251.813141,268.652802 
z"/>
</svg>